<svg width="22" height="22" viewBox="0 0 22 22" fill="none" xmlns="http://www.w3.org/2000/svg">
<path fill-rule="evenodd" clip-rule="evenodd" d="M11 0C4.92487 0 0 4.92487 0 11C0 17.0751 4.92487 22 11 22C17.0751 22 22 17.0751 22 11C22 4.92487 17.0751 0 11 0ZM11.6592 6.5C11.6592 6.08579 11.3234 5.75 10.9092 5.75C10.495 5.75 10.1592 6.08579 10.1592 6.5V10.25H5.90918C5.49497 10.25 5.15918 10.5858 5.15918 11C5.15918 11.4142 5.49497 11.75 5.90918 11.75H10.1592V15.5C10.1592 15.9142 10.495 16.25 10.9092 16.25C11.3234 16.25 11.6592 15.9142 11.6592 15.5V11.75H15.9092C16.3234 11.75 16.6592 11.4142 16.6592 11C16.6592 10.5858 16.3234 10.25 15.9092 10.25H11.6592V6.5Z" fill="white"/>
</svg>
