<svg width="22" height="22" viewBox="0 0 22 22" fill="none" xmlns="http://www.w3.org/2000/svg">
<path fill-rule="evenodd" clip-rule="evenodd" d="M11 0C4.92487 0 0 4.92487 0 11C0 17.0751 4.92487 22 11 22C17.0751 22 22 17.0751 22 11C22 4.92487 17.0751 0 11 0ZM5.19357 11.6519C5.57891 11.8938 6.03432 12.0148 6.55979 12.0148C7.09026 12.0148 7.54567 11.8938 7.92601 11.6519C8.31135 11.4049 8.60661 11.0568 8.8118 10.6074C9.01698 10.1531 9.11957 9.61975 9.11957 9.00741V9C9.11957 8.37778 9.01698 7.84444 8.8118 7.4C8.60661 6.95062 8.31135 6.60494 7.92601 6.36296C7.54567 6.12099 7.09026 6 6.55979 6C6.03432 6 5.57891 6.12099 5.19357 6.36296C4.81323 6.60494 4.51796 6.95062 4.30778 7.4C4.10259 7.84444 4 8.37778 4 9V9.00741C4 9.61975 4.10259 10.1531 4.30778 10.6074C4.51796 11.0568 4.81323 11.4049 5.19357 11.6519ZM7.31796 10.3556C7.14281 10.6716 6.89008 10.8296 6.55979 10.8296C6.2345 10.8296 5.98177 10.6716 5.80161 10.3556C5.62645 10.0395 5.53887 9.59012 5.53887 9.00741V9C5.53887 8.41235 5.62645 7.96296 5.80161 7.65185C5.98177 7.34074 6.2345 7.18518 6.55979 7.18518C6.89008 7.18518 7.14281 7.34074 7.31796 7.65185C7.49812 7.96296 7.5882 8.41235 7.5882 9V9.00741C7.5882 9.59012 7.49812 10.0395 7.31796 10.3556ZM7.84773 16.8444C8.08457 16.8444 8.30611 16.7274 8.43954 16.5317L14.7516 7.27545C15.0758 6.79996 14.7353 6.15556 14.1598 6.15556C13.9229 6.15556 13.7014 6.27263 13.568 6.46831L7.25591 15.7245C6.93166 16.2 7.27219 16.8444 7.84773 16.8444ZM14.074 16.637C14.4593 16.879 14.9147 17 15.4402 17C15.9707 17 16.4261 16.879 16.8064 16.637C17.1918 16.3901 17.487 16.042 17.6922 15.5926C17.8974 15.1432 18 14.6099 18 13.9926V13.9852C18 13.363 17.8974 12.8296 17.6922 12.3852C17.487 11.9358 17.1918 11.5901 16.8064 11.3481C16.4261 11.1062 15.9707 10.9852 15.4402 10.9852C14.9147 10.9852 14.4593 11.1062 14.074 11.3481C13.6937 11.5901 13.3984 11.9358 13.1882 12.3852C12.983 12.8296 12.8804 13.363 12.8804 13.9852V13.9926C12.8804 14.6099 12.983 15.1432 13.1882 15.5926C13.3984 16.042 13.6937 16.3901 14.074 16.637ZM16.1984 15.3407C16.0232 15.6568 15.7705 15.8148 15.4402 15.8148C15.1149 15.8148 14.8622 15.6568 14.682 15.3407C14.5069 15.0247 14.4193 14.5753 14.4193 13.9926V13.9852C14.4193 13.3975 14.5069 12.9481 14.682 12.637C14.8622 12.3259 15.1149 12.1704 15.4402 12.1704C15.7705 12.1704 16.0232 12.3259 16.1984 12.637C16.3786 12.9481 16.4686 13.3975 16.4686 13.9852V13.9926C16.4686 14.5753 16.3786 15.0247 16.1984 15.3407Z" fill="white"/>
</svg>
