<svg width="160" height="160" viewBox="0 0 160 160" fill="none" xmlns="http://www.w3.org/2000/svg">
<path d="M0 53.3333H53.3333V0H0V53.3333ZM8.88889 8.88889H44.4444V44.4444H8.88889V8.88889ZM17.7778 17.7778H35.5556V35.5556H17.7778V17.7778ZM106.667 53.3333H160V0H106.667V53.3333ZM115.556 8.88889H151.111V44.4444H115.556V8.88889ZM124.444 17.7778H142.222V35.5556H124.444V17.7778ZM0 160H53.3333V106.667H0V160ZM8.88889 115.556H44.4444V151.111H8.88889V115.556ZM17.7778 124.444H35.5556V142.222H17.7778V124.444ZM151.111 142.222H160V160H142.222V133.333H151.111V142.222ZM151.111 115.556H160V124.444H151.111V115.556ZM151.111 106.667V115.556H142.222V106.667H151.111ZM62.2222 124.444H71.1111V160H62.2222V124.444ZM26.6667 62.2222V80H8.88889V71.1111H0V62.2222H26.6667ZM62.2222 35.5556H71.1111V44.4444H62.2222V35.5556ZM88.8889 8.88889V26.6667H80V0H97.7778V8.88889H88.8889ZM62.2222 8.88889H71.1111V17.7778H62.2222V8.88889ZM151.111 80H160V97.7778H142.222V88.8889H151.111V80ZM142.222 62.2222V71.1111H124.444V88.8889H106.667V80H115.556V62.2222H142.222ZM80 97.7778H71.1111V88.8889H62.2222V80H80V97.7778ZM133.333 115.556H142.222V124.444H133.333V115.556ZM151.111 71.1111V80H142.222V71.1111H151.111ZM71.1111 97.7778V106.667H62.2222V97.7778H71.1111ZM124.444 142.222H133.333V160H115.556V142.222H124.444ZM97.7778 142.222H106.667V151.111H97.7778V160H80V151.111H88.8889V142.222H97.7778ZM97.7778 133.333V124.444H115.556V133.333H97.7778ZM97.7778 88.8889H106.667V115.556H97.7778V124.444H88.8889V133.333H80V115.556H71.1111V106.667H97.7778V97.7778H88.8889V88.8889H97.7778ZM17.7778 88.8889V97.7778H8.88889V88.8889H17.7778ZM124.444 124.444H115.556V115.556H124.444V124.444ZM133.333 106.667H115.556V97.7778H133.333V106.667ZM44.4444 62.2222H53.3333V71.1111H44.4444V80H53.3333V97.7778H44.4444V88.8889H35.5556V97.7778H26.6667V80H35.5556V62.2222H44.4444ZM71.1111 62.2222V44.4444H97.7778V71.1111H80V62.2222H88.8889V53.3333H80V62.2222H71.1111ZM71.1111 26.6667H80V35.5556H71.1111V26.6667ZM62.2222 62.2222H71.1111V71.1111H62.2222V62.2222ZM88.8889 35.5556V26.6667H97.7778V35.5556H88.8889Z" fill="white"/>
</svg>
