<svg width="22" height="22" viewBox="8 20 24 2" fill="none" xmlns="http://www.w3.org/2000/svg">
<path fill-rule="evenodd" clip-rule="evenodd" d="M20.0619 9.00006C13.9868 9.00006 9.06189 13.9249 9.06189 20.0001C9.06189 26.0752 13.9868 31.0001 20.0619 31.0001C26.137 31.0001 31.0619 26.0752 31.0619 20.0001C31.0619 13.9249 26.137 9.00006 20.0619 9.00006ZM16.6276 19.9344C16.3152 19.622 15.8086 19.622 15.4962 19.9344C15.1838 20.2468 15.1838 20.7533 15.4962 21.0657L19.4962 25.0657C19.8086 25.3782 20.3152 25.3782 20.6276 25.0657L24.6276 21.0657C24.94 20.7533 24.94 20.2468 24.6276 19.9344C24.3152 19.622 23.8086 19.622 23.4962 19.9344L20.8619 22.5687L20.8619 15.0001C20.8619 14.5582 20.5037 14.2001 20.0619 14.2001C19.6201 14.2001 19.2619 14.5582 19.2619 15.0001L19.2619 22.5687L16.6276 19.9344Z" fill="white"/>
</svg>
