<svg width="22" height="22" viewBox="0 0 22 22" fill="none" xmlns="http://www.w3.org/2000/svg">
<path fill-rule="evenodd" clip-rule="evenodd" d="M0.5 10.4762C0.5 4.69035 5.19035 0 10.9762 0C16.762 0 21.4524 4.69035 21.4524 10.4762V11.5238C21.4524 17.3096 16.762 22 10.9762 22C5.19035 22 0.5 17.3096 0.5 11.5238V10.4762ZM11.4778 6.44253C11.1926 6.18582 10.7596 6.18582 10.4744 6.44253L6.47435 10.0425C6.16647 10.3196 6.14151 10.7938 6.4186 11.1017C6.6957 11.4096 7.16992 11.4346 7.4778 11.1575L10.2261 8.68402V16C10.2261 16.4142 10.5619 16.75 10.9761 16.75C11.3903 16.75 11.7261 16.4142 11.7261 16V8.68402L14.4743 11.1575C14.7822 11.4346 15.2565 11.4096 15.5335 11.1017C15.8106 10.7938 15.7857 10.3196 15.4778 10.0425L11.4778 6.44253Z" fill="white"/>
</svg>
