<svg width="42" height="40" viewBox="0 0 42 40" fill="none" xmlns="http://www.w3.org/2000/svg">
<rect x="0.352173" width="40.8284" height="40" rx="20" fill="url(#paint0_linear_346_1206)"/>
<path fill-rule="evenodd" clip-rule="evenodd" d="M20.7664 31C26.9673 31 31.9942 26.0751 31.9942 20C31.9942 13.9249 26.9673 9 20.7664 9C14.5654 9 9.53857 13.9249 9.53857 20C9.53857 26.0751 14.5654 31 20.7664 31ZM24.2718 20.0657C24.5907 20.3781 25.1077 20.3781 25.4266 20.0657C25.7455 19.7533 25.7455 19.2467 25.4266 18.9343L21.3438 14.9343C21.0249 14.6219 20.5079 14.6219 20.189 14.9343L16.1061 18.9343C15.7873 19.2467 15.7873 19.7533 16.1061 20.0657C16.425 20.3781 16.9421 20.3781 17.2609 20.0657L19.9498 17.4314V25C19.9498 25.4418 20.3154 25.8 20.7664 25.8C21.2174 25.8 21.5829 25.4418 21.5829 25V17.4314L24.2718 20.0657Z" fill="white"/>
<defs>
<linearGradient id="paint0_linear_346_1206" x1="20.7664" y1="0" x2="35.0045" y2="34.0455" gradientUnits="userSpaceOnUse">
<stop stop-color="#A8A1FF"/>
<stop offset="1" stop-color="#5647CF"/>
</linearGradient>
</defs>
</svg>
