<svg width="23" height="22" viewBox="0 0 23 22" fill="none" xmlns="http://www.w3.org/2000/svg">
<path fill-rule="evenodd" clip-rule="evenodd" d="M0.5 11C0.5 4.92487 5.42487 0 11.5 0C17.5751 0 22.5 4.92487 22.5 11C22.5 17.0751 17.5751 22 11.5 22C5.42487 22 0.5 17.0751 0.5 11ZM6.39322 7.96982C6.16014 7.72008 6.16014 7.33254 6.39322 7.08281L9.63533 3.60912C9.88027 3.34668 10.2916 3.3325 10.554 3.57744C10.8165 3.82238 10.8306 4.2337 10.5857 4.49613L8.3642 6.87631H10.921H14.9737C15.3327 6.87631 15.6237 7.16733 15.6237 7.52631C15.6237 7.8853 15.3327 8.17631 14.9737 8.17631H10.921H8.3642L10.5857 10.5565C10.8306 10.8189 10.8165 11.2302 10.554 11.4752C10.2916 11.7201 9.88027 11.7059 9.63533 11.4435L6.39322 7.96982ZM16.59 14.9345C16.7126 14.8125 16.7816 14.6466 16.7816 14.4737C16.7816 14.3007 16.7126 14.1349 16.59 14.0129L13.0985 10.5392C12.844 10.286 12.4325 10.2871 12.1793 10.5416C11.9261 10.796 11.9271 11.2076 12.1816 11.4608L14.5566 13.8237H8.0263C7.66732 13.8237 7.3763 14.1147 7.3763 14.4737C7.3763 14.8327 7.66732 15.1237 8.0263 15.1237H14.5566L12.1816 17.4866C11.9271 17.7398 11.9261 18.1513 12.1793 18.4058C12.4325 18.6603 12.844 18.6613 13.0985 18.4082L16.59 14.9345Z" fill="white"/>
</svg>
