<svg width="41" height="40" viewBox="0 0 41 40" fill="none" xmlns="http://www.w3.org/2000/svg">
<path d="M20.75 40C31.9379 40 41 31.0436 41 20C41 8.95642 31.9379 0 20.75 0C9.56207 0 0.5 8.95642 0.5 20C0.5 31.0436 9.56983 40 20.75 40Z" fill="#FF060A"/>
<path d="M32.5547 16.7056C31.3887 15.682 29.7694 14.1226 28.4577 13.0191L28.3767 12.9711C28.2472 12.8751 28.1014 12.7951 27.9476 12.7392C24.7737 12.1794 10.0052 9.56443 9.72181 9.59642C9.64084 9.60442 9.55987 9.63641 9.49509 9.67639L9.42222 9.73237C9.33316 9.82033 9.26029 9.92429 9.21981 10.0442L9.20361 10.0922V10.3561V10.3961C10.8634 14.7783 17.4299 29.1246 18.7254 32.4993C18.8064 32.7312 18.9521 33.163 19.2274 33.187H19.2922C19.4379 33.187 20.0695 32.3953 20.0695 32.3953C20.0695 32.3953 31.3482 19.4565 32.4899 18.081C32.6356 17.9131 32.7652 17.7292 32.8785 17.5372C32.9109 17.3853 32.8947 17.2334 32.8381 17.0894C32.7814 16.9455 32.6761 16.8095 32.5547 16.7056ZM22.9519 18.217L27.7614 14.4425L30.5872 16.9055L22.9519 18.217ZM21.0816 17.9691L12.7986 11.5396L26.2068 13.8827L21.0816 17.9691ZM21.8265 19.6484L30.3038 18.3529L20.6119 29.4125L21.8265 19.6484ZM11.6731 12.1874L20.3933 19.1846L19.1302 29.4205L11.6731 12.1874Z" fill="white"/>
</svg>
